<svg width="23" height="23" viewBox="0 0 23 23" fill="none" xmlns="http://www.w3.org/2000/svg">
<path d="M21.9685 18.1465C21.9685 18.5245 21.8845 18.913 21.706 19.291C21.5275 19.669 21.2965 20.026 20.992 20.362C20.4775 20.929 19.9105 21.3385 19.27 21.601C18.64 21.8635 17.9575 22 17.2225 22C16.1515 22 15.007 21.748 13.7995 21.2335C12.592 20.719 11.3845 20.026 10.1875 19.1545C8.98 18.2725 7.8355 17.296 6.7435 16.2145C5.662 15.1225 4.6855 13.978 3.814 12.781C2.953 11.584 2.26 10.387 1.756 9.2005C1.252 8.0035 1 6.859 1 5.767C1 5.053 1.126 4.3705 1.378 3.7405C1.63 3.1 2.029 2.512 2.5855 1.987C3.2575 1.3255 3.9925 1 4.7695 1C5.0635 1 5.3575 1.063 5.62 1.189C5.893 1.315 6.1345 1.504 6.3235 1.777L8.7595 5.2105C8.9485 5.473 9.085 5.7145 9.1795 5.9455C9.274 6.166 9.3265 6.3865 9.3265 6.586C9.3265 6.838 9.253 7.09 9.106 7.3315C8.9695 7.573 8.77 7.825 8.518 8.077L7.72 8.9065C7.6045 9.022 7.552 9.1585 7.552 9.3265C7.552 9.4105 7.5625 9.484 7.5835 9.568C7.615 9.652 7.6465 9.715 7.6675 9.778C7.8565 10.1245 8.182 10.576 8.644 11.122C9.1165 11.668 9.6205 12.2245 10.1665 12.781C10.7335 13.3375 11.2795 13.852 11.836 14.3245C12.382 14.7865 12.8335 15.1015 13.1905 15.2905C13.243 15.3115 13.306 15.343 13.3795 15.3745C13.4635 15.406 13.5475 15.4165 13.642 15.4165C13.8205 15.4165 13.957 15.3535 14.0725 15.238L14.8705 14.4505C15.133 14.188 15.385 13.9885 15.6265 13.8625C15.868 13.7155 16.1095 13.642 16.372 13.642C16.5715 13.642 16.7815 13.684 17.0125 13.7785C17.2435 13.873 17.485 14.0095 17.7475 14.188L21.223 16.6555C21.496 16.8445 21.685 17.065 21.8005 17.3275C21.9055 17.59 21.9685 17.8525 21.9685 18.1465Z" stroke="white" stroke-width="1.5" stroke-miterlimit="10"/>
<path d="M18.3244 8.35005C18.3244 7.72005 17.8309 6.75405 17.0959 5.96655C16.4239 5.24205 15.5314 4.67505 14.6494 4.67505" stroke="white" stroke-width="1.5" stroke-linecap="round" stroke-linejoin="round"/>
<path d="M21.9984 8.35C21.9984 4.2865 18.7119 1 14.6484 1" stroke="white" stroke-width="1.5" stroke-linecap="round" stroke-linejoin="round"/>
</svg>
