<svg width="120" height="119" viewBox="0 0 120 119" fill="none" xmlns="http://www.w3.org/2000/svg">
<path d="M119.303 0.670543C118.663 0.0439349 117.716 -0.165244 116.869 0.135509L19.5206 34.5564C16.1386 32.5055 11.8488 32.0254 7.91437 33.6409C1.38351 36.3238 -1.72923 43.7754 0.975926 50.2523C7.35539 65.5242 16.5661 79.1946 28.3531 90.8833C40.14 102.572 53.9251 111.706 69.3256 118.032C70.925 118.689 72.5827 119 74.2149 119C79.2481 119 84.0339 116.042 86.0764 111.151C87.4508 107.861 87.321 104.319 86.0064 101.278L119.874 3.0768C120.165 2.23265 119.943 1.29738 119.303 0.670543ZM34.2605 34.2796L44.5777 30.632C45.789 31.9117 46.3794 33.6735 46.1429 35.4552C45.9343 37.024 45.1224 38.4188 43.8565 39.3822C42.5907 40.3456 41.0232 40.7618 39.44 40.5557C37.8582 40.3491 36.4519 39.5442 35.4804 38.2886C34.5854 37.1319 34.1595 35.7206 34.2605 34.2796ZM81.7457 109.372C80.0296 113.481 75.2619 115.439 71.1195 113.737C41.1101 101.41 17.7375 78.2324 5.30695 48.4731C4.47562 46.4829 4.47562 44.2909 5.30695 42.3005C6.13828 40.3102 7.70133 38.7602 9.70828 37.9358C11.7152 37.1114 13.9259 37.1114 15.9328 37.9358C17.9398 38.7602 19.5028 40.3102 20.3342 42.3005C25.6547 55.0388 33.3375 66.4409 43.1691 76.1905C53.0007 85.9401 64.4987 93.5587 77.3441 98.8351C81.4874 100.537 83.462 105.264 81.7457 109.372ZM102.568 38.8908C102.356 38.8857 102.144 38.8736 101.932 38.8462C100.35 38.6396 98.9439 37.8345 97.9726 36.5792C97.0011 35.3239 96.5809 33.7683 96.789 32.1997C97.2191 28.9611 100.225 26.6736 103.492 27.0994C104.5 27.231 105.446 27.6186 106.253 28.2083L102.568 38.8908ZM107.811 23.6891C106.669 23.0725 105.414 22.6618 104.104 22.4907C98.2745 21.7277 92.909 25.813 92.1416 31.593C91.7699 34.3928 92.5199 37.1686 94.2536 39.4091C95.9235 41.5672 98.3141 42.977 101.011 43.407L96.3524 56.9151L90.995 52.8385C89.9682 52.0575 88.4966 52.249 87.7089 53.2675C86.9209 54.286 87.1147 55.7449 88.1415 56.5263L94.7521 61.5563L82.6363 96.688C81.62 95.8118 80.4498 95.0787 79.1389 94.5402C54.2998 84.3371 34.9545 65.1531 24.6661 40.5215C24.3085 39.6648 23.8641 38.8695 23.3515 38.1369L29.6278 35.9177C29.847 37.7929 30.5728 39.5816 31.7618 41.1181C33.4953 43.3587 36.0052 44.7955 38.8285 45.1639C39.3015 45.2257 39.773 45.2564 40.2422 45.2564C42.5738 45.2564 44.8294 44.501 46.7103 43.07C48.9699 41.3506 50.4186 38.862 50.7905 36.0618C51.124 33.5482 50.5325 31.0585 49.2043 28.996L78.3388 18.6946L79.4429 21.3382C79.817 22.2332 80.6896 22.7736 81.6092 22.7736C81.9081 22.7736 82.2118 22.7164 82.5053 22.596C83.701 22.1049 84.2689 20.745 83.7737 19.5592L82.7598 17.1316L113.866 6.13291L107.811 23.6891Z" fill="#FF9D24"/>
<path d="M26.3114 74.6296C26.3044 74.6186 26.2849 74.5889 26.2774 74.5782C25.5598 73.5048 24.1073 73.2167 23.0304 73.9316C21.9553 74.6453 21.6637 76.094 22.3753 77.1678C22.8241 77.8553 23.5751 78.2304 24.3422 78.2304C24.7763 78.2304 25.2152 78.1103 25.6071 77.8591C26.696 77.161 27.0113 75.7151 26.3114 74.6296Z" fill="#FF9D24"/>
<path d="M22.7474 68.8239C20.4634 64.8309 18.4103 60.6519 16.6452 56.4035C16.15 55.2107 14.7782 54.6452 13.5831 55.139C12.3871 55.6328 11.8194 56.9999 12.3149 58.1923C14.1547 62.6211 16.295 66.9772 18.6758 71.1394C19.1082 71.8952 19.8995 72.3191 20.7137 72.3191C21.1075 72.3191 21.5066 72.22 21.8727 72.0118C22.997 71.3722 23.3889 69.945 22.7474 68.8239Z" fill="#FF9D24"/>
<path d="M74.3432 41.8444C73.8786 41.7832 73.4068 41.7523 72.9409 41.7523C67.6166 41.7523 63.0767 45.7264 62.3811 50.9963C61.6137 56.8079 65.731 62.1586 71.5595 62.9238C72.024 62.985 72.4958 63.0158 72.9617 63.0158C78.2858 63.0158 82.8257 59.0418 83.5215 53.7714C84.2886 47.96 80.1714 42.6095 74.3432 41.8444ZM78.8743 53.1615C78.4843 56.1147 75.9425 58.3416 72.9617 58.3416C72.6997 58.3416 72.4337 58.3243 72.1714 58.2898C68.9054 57.8609 66.5987 54.8628 67.0285 51.6062C67.4185 48.6532 69.9601 46.4265 72.9409 46.4265C73.2029 46.4265 73.4689 46.4438 73.7312 46.4784C76.997 46.9075 79.3042 49.9054 78.8743 53.1615Z" fill="#FF9D24"/>
<path d="M73.7339 70.9134C73.2691 70.8521 72.7976 70.8213 72.3316 70.8213C67.0073 70.8213 62.4675 74.7953 61.7718 80.0655C61.3999 82.8808 62.1499 85.6717 63.8836 87.9247C65.617 90.1776 68.1267 91.6223 70.9502 91.9932C71.4145 92.0542 71.8861 92.0848 72.3518 92.0848C77.6761 92.0848 82.2162 88.1108 82.9121 82.8404C83.6796 77.0293 79.5621 71.679 73.7339 70.9134ZM78.2651 82.2307C77.8751 85.1839 75.3331 87.4108 72.3523 87.4108C72.0905 87.4108 71.8244 87.3933 71.5624 87.359C69.9804 87.151 68.5741 86.3414 67.6026 85.0792C66.6311 83.817 66.2109 82.2531 66.4193 80.6754C66.8093 77.7224 69.3511 75.4955 72.3316 75.4955C72.5937 75.4955 72.8597 75.5128 73.122 75.5474C76.3875 75.9762 78.6947 78.9743 78.2651 82.2307Z" fill="#FF9D24"/>
<path d="M58.2757 61.232L51.0719 60.2862C49.7892 60.1163 48.6112 61.0184 48.4422 62.2979C48.273 63.5776 49.1765 64.7515 50.4598 64.92L57.6635 65.8657C57.7674 65.8795 57.8705 65.8861 57.9724 65.8861C59.1305 65.8861 60.1378 65.03 60.293 63.8541C60.4624 62.5746 59.5592 61.4005 58.2757 61.232Z" fill="#FF9D24"/>
<path d="M54.622 78.4779L53.9859 73.6581C53.8169 72.3784 52.6399 71.4773 51.3564 71.6462C50.073 71.8147 49.1697 72.9883 49.3387 74.2681L49.975 79.0879C50.1302 80.2641 51.1373 81.1201 52.2956 81.1201C52.3975 81.1201 52.5006 81.1136 52.6042 81.0998C53.8877 80.9313 54.791 79.7577 54.622 78.4779Z" fill="#FF9D24"/>
</svg>
