<svg width="120" height="119" viewBox="0 0 120 119" fill="none" xmlns="http://www.w3.org/2000/svg">
<path d="M89.2004 47.5742L96.2509 47.1287C96.2628 47.1278 96.2757 47.1269 96.2885 47.126C101.313 46.7032 105.823 44.0783 108.663 39.9222L114.237 31.7671C119.088 24.6674 120.968 16.0923 119.527 7.62214C119.244 5.95861 118.391 4.42565 117.126 3.30719C115.86 2.18782 114.232 1.52679 112.542 1.44645C103.934 1.03559 95.6256 3.92531 89.14 9.57967L81.6894 16.0758C77.8927 19.3855 75.82 24.1652 76.0012 29.1914C76.0022 29.2033 76.0022 29.2161 76.0031 29.2289L76.405 36.2619C76.5615 39.0037 75.5535 41.709 73.6447 43.6793L15.4371 103.313C13.8788 104.933 13.0741 107.156 13.1721 109.573C13.2801 112.234 14.5042 114.847 16.4469 116.564C18.202 118.115 20.6144 118.999 23.0259 118.999C23.2841 118.999 23.5423 118.989 23.7995 118.968C26.2175 118.776 28.3351 117.713 29.7688 115.965L82.1435 51.2008C83.8803 49.0698 86.4529 47.7477 89.2004 47.5742ZM79.3475 48.9438L26.9773 113.703C26.1772 114.678 24.9467 115.279 23.513 115.393C21.8073 115.529 20.0587 114.963 18.8337 113.88C17.6087 112.796 16.836 111.133 16.7673 109.428C16.7088 107.995 17.1583 106.705 18.0244 105.805L76.2274 46.1764C78.8366 43.4839 80.2099 39.7962 79.9975 36.0583L79.5956 29.0435C79.4592 25.1093 81.0843 21.3686 84.057 18.7766L91.5076 12.2804C97.2901 7.23959 104.7 4.66577 112.371 5.02915C113.244 5.07115 114.085 5.41262 114.739 5.99148C115.394 6.56943 115.834 7.36193 115.981 8.22109C117.264 15.7727 115.589 23.4165 111.264 29.7456L105.69 37.9017C103.466 41.1557 99.9369 43.2127 96.0037 43.5496L88.9725 43.9934C85.2261 44.2308 81.7196 46.0331 79.3475 48.9438Z" fill="#FF9D24"/>
<path d="M116.677 102.86L77.6492 67.4097C76.9149 66.7423 75.7778 66.7952 75.1077 67.5275C74.4393 68.2597 74.4924 69.3946 75.2267 70.062L114.245 105.504C115.173 106.359 115.699 107.62 115.728 109.054C115.762 110.759 115.091 112.466 113.932 113.62C112.775 114.775 111.067 115.446 109.353 115.411C107.916 115.383 106.651 114.858 105.803 113.942L71.0253 75.8652C70.3561 75.132 69.2181 75.08 68.4838 75.7465C67.7496 76.4139 67.6965 77.5488 68.3657 78.2811L103.151 116.367C104.68 118.016 106.857 118.951 109.282 118.998C109.346 118.999 109.408 119 109.471 119C112.078 119 114.684 117.945 116.476 116.158C118.312 114.326 119.377 111.645 119.324 108.983C119.276 106.565 118.34 104.393 116.677 102.86Z" fill="#FF9D24"/>
<path d="M21.7052 47.2345C24.6825 49.9699 28.5506 51.5293 32.5972 51.6261C32.6101 51.627 32.6229 51.627 32.6348 51.627L39.699 51.649C42.4529 51.6572 45.0997 52.8231 46.9573 54.8418L50.0692 58.2483C50.4244 58.6372 50.9105 58.8344 51.3994 58.8344C51.8316 58.8344 52.2655 58.6801 52.6098 58.367C53.3449 57.6995 53.398 56.5647 52.7288 55.8324L49.6123 52.4214C47.0745 49.6622 43.4655 48.0736 39.7109 48.0608L32.6659 48.0389C29.5357 47.9594 26.5428 46.7643 24.2238 44.6707L3.75169 20.4008C3.54295 20.1524 3.55852 19.7927 3.78832 19.5635C3.94579 19.4056 4.13072 19.3828 4.22685 19.3828C4.32298 19.3828 4.50792 19.4056 4.66631 19.5635L23.301 38.1481C25.143 39.9851 28.1404 39.9851 29.9825 38.1472L32.1724 35.9641V35.9632L36.0607 32.0856C36.0607 32.0856 36.0616 32.0856 36.0616 32.0847L36.0625 32.0838L38.2515 29.9008C40.0936 28.0638 40.0936 25.0745 38.2515 23.2375L19.6169 4.65389C19.3752 4.41286 19.3752 4.01934 19.6169 3.77831C19.8467 3.54914 20.2074 3.53362 20.4564 3.74179L44.793 24.1588C46.8932 26.4706 48.0916 29.4561 48.1713 32.5768L48.1923 39.6035C48.2052 43.3468 49.7991 46.946 52.5695 49.4823L55.9038 52.5108C56.639 53.1783 57.7761 53.1253 58.4453 52.3931C59.1137 51.6599 59.0606 50.5259 58.3263 49.8585L54.9975 46.8346C52.9677 44.9775 51.7995 42.337 51.7904 39.5916L51.7684 32.5467C51.7684 32.5339 51.7684 32.5211 51.7675 32.5084C51.6704 28.4728 50.1067 24.6153 47.3638 21.6461C47.3125 21.5905 47.2576 21.5375 47.199 21.4882L22.7718 0.996329C21.0836 -0.420681 18.6336 -0.31477 17.0735 1.24102C15.4283 2.88172 15.4283 5.55048 17.0735 7.19027L35.7082 25.7748C36.1477 26.2131 36.1477 26.9261 35.7082 27.3644L34.7899 28.2792L14.0212 7.56826C13.319 6.86706 12.18 6.86706 11.4778 7.56826C10.7756 8.26855 10.7756 9.40435 11.4778 10.1046L32.2466 30.8165L30.9008 32.1578L10.132 11.4468C9.4298 10.7465 8.29088 10.7465 7.58867 11.4468C6.88555 12.1471 6.88555 13.2829 7.58867 13.9832L28.3565 34.695L27.4391 35.6108C26.9997 36.0491 26.2847 36.0491 25.8452 35.6108L7.20964 17.0272C6.41313 16.2328 5.35387 15.7946 4.22685 15.7946C3.09984 15.7946 2.04057 16.2328 1.24406 17.0272C-0.315996 18.583 -0.421282 21.0262 0.998702 22.7107L21.5477 47.0701C21.5963 47.1286 21.6494 47.1834 21.7052 47.2345Z" fill="#FF9D24"/>
</svg>
