<svg width="148" height="52" viewBox="0 0 148 52" fill="none" xmlns="http://www.w3.org/2000/svg">
<path fill-rule="evenodd" clip-rule="evenodd" d="M32.4496 48.6887C28.9909 47.0003 13.1902 38.9308 12.2442 37.6071C11.3036 36.352 11.4991 35.665 11.5916 35.2555C11.6973 35.0441 11.4542 34.6636 11.3406 34.6028C10.2705 34.04 3.59348 30.5998 2.23271 29.8996C2.18251 29.9815 2.12702 30.0687 2.06889 30.1612L8.65605 34.6319C8.65605 34.6319 8.74589 34.6927 8.71946 34.7825L1.55101 30.975L1.3819 31.2366L7.98491 35.7416C7.98491 35.7416 8.06418 35.7945 8.05097 35.8737L0.86402 32.0345L0.697557 32.2908L7.32699 36.8382C7.32699 36.8382 7.41419 36.8963 7.38512 36.9861L0.169105 33.0967L0 33.3557C1.47174 34.3941 7.30585 38.5028 8.27028 39.1713C8.32048 39.2056 8.71682 39.3457 8.88328 39.1264C9.11052 38.9335 9.63369 38.6085 10.4634 38.5187C10.7329 38.5081 11.0288 38.5239 11.3538 38.5794C12.9682 38.8067 27.4346 49.0745 30.5287 51.3574C31.0915 51.7722 31.9582 52.0867 32.9226 51.9783C33.3744 51.9704 33.8553 51.8674 34.3388 51.6428C34.2675 50.1235 33.3057 49.1062 32.4496 48.6861V48.6887Z" fill="#FF9D24"/>
<path fill-rule="evenodd" clip-rule="evenodd" d="M42.0888 31.2868C40.4189 29.0937 36.157 29.8494 33.3165 31.7413C29.0281 34.5975 29.7442 36.5766 28.6952 38.5002C27.7308 39.8107 14.1073 46.7467 10.6301 48.3875C9.87438 48.7416 9.02621 49.5527 8.76991 50.7761C8.69065 51.0351 8.6378 51.3151 8.62195 51.6164C8.89674 51.7405 9.1689 51.8224 9.43576 51.8727C10.6406 52.2082 11.7504 51.8304 12.4136 51.3231C15.4733 48.9926 27.9078 40.0987 29.5143 39.8477C31.7074 39.8054 33.1316 41.3512 37.6445 38.8622C40.6329 37.2134 43.2699 33.7784 42.0915 31.2868H42.0888Z" fill="#FF9D24"/>
<path fill-rule="evenodd" clip-rule="evenodd" d="M10.149 29.5035L9.94554 15.6633C6.19881 14.3184 3.61997 11.507 3.61997 8.25442C3.61732 3.69652 8.68782 0 14.9394 0C17.3492 0 19.5845 0.54959 21.4209 1.48495C23.2573 0.54959 25.49 0 27.9023 0C34.1539 0 39.2244 3.69652 39.2244 8.25442C39.2244 11.507 36.6456 14.3184 32.8989 15.6633C32.8302 20.2767 32.7641 24.8901 32.6954 29.5035C25.0276 31.4852 17.5288 31.2897 10.1516 29.5035H10.149Z" fill="#FF9D24"/>
<path fill-rule="evenodd" clip-rule="evenodd" d="M16.7545 15.0529C16.5642 15.0582 14.3025 15.3991 12.9443 15.6078L13.0712 29.0199H11.5202L11.3907 15.4651C2.41228 12.0513 4.23808 2.99365 12.4846 1.22334C10.1118 2.51804 7.02038 5.06518 7.02038 7.8607C7.02038 15.6369 16.8998 15.0476 16.7571 15.0503L16.7545 15.0529Z" fill="#E3E4E4"/>
<path d="M65.686 18.4C65.738 18.3133 65.7553 18.2613 65.738 18.244C65.738 18.2093 65.6773 18.192 65.556 18.192C63.58 18.192 62.072 18.27 61.032 18.426C60.0093 18.5647 59.1687 18.8767 58.51 19.362C57.8513 19.83 57.2793 20.5667 56.794 21.572C56.7767 21.5893 56.742 21.598 56.69 21.598C56.534 21.598 56.4647 21.5633 56.482 21.494L57.522 16.97C57.522 16.9527 57.5567 16.944 57.626 16.944C57.7993 16.944 57.8687 16.97 57.834 17.022C57.8167 17.074 57.808 17.1433 57.808 17.23C57.808 17.438 57.9033 17.5767 58.094 17.646C58.302 17.7153 58.7093 17.75 59.316 17.75H68.806C68.8927 17.75 68.9533 17.7933 68.988 17.88C69.04 17.9667 69.04 18.036 68.988 18.088L59.992 33.298C59.9227 33.3847 59.8967 33.4453 59.914 33.48C59.9313 33.4973 59.992 33.506 60.096 33.506H65.348C65.972 33.506 66.5787 33.35 67.168 33.038C67.7573 32.7087 68.26 32.2753 68.676 31.738C69.092 31.2007 69.352 30.6287 69.456 30.022C69.4733 29.97 69.5253 29.944 69.612 29.944C69.6987 29.944 69.742 29.97 69.742 30.022L69.378 33.792C69.378 33.844 69.352 33.9047 69.3 33.974C69.2653 34.026 69.2133 34.052 69.144 34.052C66.5613 34.0173 62.41 34 56.69 34C56.6207 34 56.5687 33.9653 56.534 33.896C56.4993 33.8093 56.508 33.7313 56.56 33.662L65.686 18.4Z" fill="white"/>
<path d="M87.1482 21.078C87.1482 20.142 86.9315 19.4053 86.4982 18.868C86.0822 18.3307 85.4929 18.062 84.7302 18.062C84.6955 18.062 84.6782 18.01 84.6782 17.906C84.6782 17.802 84.6955 17.75 84.7302 17.75L85.9782 17.776C86.6369 17.8107 87.1655 17.828 87.5642 17.828C87.8935 17.828 88.3702 17.8107 88.9942 17.776L90.1902 17.75C90.2249 17.75 90.2422 17.802 90.2422 17.906C90.2422 18.01 90.2249 18.062 90.1902 18.062C89.5142 18.062 88.9855 18.3307 88.6042 18.868C88.2229 19.4053 88.0322 20.142 88.0322 21.078V28.306C88.0322 29.5193 87.7635 30.5853 87.2262 31.504C86.6889 32.4227 85.9262 33.1333 84.9382 33.636C83.9675 34.1213 82.8409 34.364 81.5582 34.364C80.2755 34.364 79.1402 34.1213 78.1522 33.636C77.1642 33.1507 76.3842 32.4487 75.8122 31.53C75.2575 30.594 74.9802 29.502 74.9802 28.254V19.856C74.9802 19.336 74.9282 18.9547 74.8242 18.712C74.7375 18.4693 74.5642 18.3047 74.3042 18.218C74.0615 18.114 73.6715 18.062 73.1342 18.062C73.0822 18.062 73.0562 18.01 73.0562 17.906C73.0562 17.802 73.0822 17.75 73.1342 17.75L74.5122 17.776C75.3095 17.8107 75.9422 17.828 76.4102 17.828C76.9302 17.828 77.5889 17.8107 78.3862 17.776L79.7122 17.75C79.7642 17.75 79.7902 17.802 79.7902 17.906C79.7902 18.01 79.7642 18.062 79.7122 18.062C79.1749 18.062 78.7762 18.114 78.5162 18.218C78.2735 18.322 78.1002 18.504 77.9962 18.764C77.9095 19.0067 77.8662 19.388 77.8662 19.908V27.344C77.8662 29.4067 78.2735 30.932 79.0882 31.92C79.9029 32.908 81.0555 33.402 82.5462 33.402C83.9849 33.402 85.1115 32.9687 85.9262 32.102C86.7409 31.218 87.1482 29.9613 87.1482 28.332V21.078Z" fill="white"/>
<path d="M113.801 33.688C113.836 33.688 113.853 33.74 113.853 33.844C113.853 33.948 113.836 34 113.801 34C113.212 34 112.744 33.9913 112.397 33.974L110.473 33.948L108.523 33.974C108.194 33.9913 107.743 34 107.171 34C107.119 34 107.093 33.948 107.093 33.844C107.093 33.74 107.119 33.688 107.171 33.688C107.899 33.688 108.393 33.6013 108.653 33.428C108.913 33.2547 109.043 32.8907 109.043 32.336L109.017 31.894L108.471 21.26L103.115 33.818C103.081 33.8873 103.011 33.922 102.907 33.922C102.803 33.922 102.734 33.8873 102.699 33.818L96.1214 21.312L95.9134 30.698C95.8961 31.634 96.0781 32.3707 96.4594 32.908C96.8581 33.428 97.4128 33.688 98.1234 33.688C98.1754 33.688 98.2014 33.74 98.2014 33.844C98.2014 33.948 98.1754 34 98.1234 34C97.6554 34 97.2914 33.9913 97.0314 33.974L95.6014 33.948L93.9634 33.974C93.6861 33.9913 93.3134 34 92.8454 34C92.7934 34 92.7674 33.948 92.7674 33.844C92.7674 33.74 92.7934 33.688 92.8454 33.688C93.5561 33.688 94.1194 33.4193 94.5354 32.882C94.9514 32.3447 95.1681 31.6167 95.1854 30.698L95.4194 19.934L95.3934 19.908C95.0468 19.2667 94.6828 18.7987 94.3014 18.504C93.9374 18.2093 93.5128 18.062 93.0274 18.062C92.9754 18.062 92.9494 18.01 92.9494 17.906C92.9494 17.802 92.9754 17.75 93.0274 17.75L94.2494 17.776C94.4921 17.7933 94.8041 17.802 95.1854 17.802L96.5634 17.776C96.7194 17.7587 96.9188 17.75 97.1614 17.75C97.3868 17.75 97.5601 17.828 97.6814 17.984C97.8028 18.14 98.0281 18.5127 98.3574 19.102L104.025 29.736L108.965 18.4C109.069 18.1573 109.173 17.9927 109.277 17.906C109.399 17.802 109.555 17.75 109.745 17.75C109.901 17.75 110.075 17.7587 110.265 17.776C110.473 17.7933 110.707 17.802 110.967 17.802L112.501 17.776C112.744 17.7587 113.091 17.75 113.541 17.75C113.593 17.75 113.619 17.802 113.619 17.906C113.619 18.01 113.593 18.062 113.541 18.062C112.727 18.062 112.137 18.2267 111.773 18.556C111.409 18.8853 111.245 19.3967 111.279 20.09L111.903 31.894C111.938 32.4313 111.999 32.8213 112.085 33.064C112.189 33.3067 112.363 33.4713 112.605 33.558C112.865 33.6447 113.264 33.688 113.801 33.688Z" fill="white"/>
<path d="M137.654 33.688C137.689 33.688 137.706 33.74 137.706 33.844C137.706 33.948 137.689 34 137.654 34C137.065 34 136.597 33.9913 136.25 33.974L134.326 33.948L132.376 33.974C132.047 33.9913 131.596 34 131.024 34C130.972 34 130.946 33.948 130.946 33.844C130.946 33.74 130.972 33.688 131.024 33.688C131.752 33.688 132.246 33.6013 132.506 33.428C132.766 33.2547 132.896 32.8907 132.896 32.336L132.87 31.894L132.324 21.26L126.968 33.818C126.934 33.8873 126.864 33.922 126.76 33.922C126.656 33.922 126.587 33.8873 126.552 33.818L119.974 21.312L119.766 30.698C119.749 31.634 119.931 32.3707 120.312 32.908C120.711 33.428 121.266 33.688 121.976 33.688C122.028 33.688 122.054 33.74 122.054 33.844C122.054 33.948 122.028 34 121.976 34C121.508 34 121.144 33.9913 120.884 33.974L119.454 33.948L117.816 33.974C117.539 33.9913 117.166 34 116.698 34C116.646 34 116.62 33.948 116.62 33.844C116.62 33.74 116.646 33.688 116.698 33.688C117.409 33.688 117.972 33.4193 118.388 32.882C118.804 32.3447 119.021 31.6167 119.038 30.698L119.272 19.934L119.246 19.908C118.9 19.2667 118.536 18.7987 118.154 18.504C117.79 18.2093 117.366 18.062 116.88 18.062C116.828 18.062 116.802 18.01 116.802 17.906C116.802 17.802 116.828 17.75 116.88 17.75L118.102 17.776C118.345 17.7933 118.657 17.802 119.038 17.802L120.416 17.776C120.572 17.7587 120.772 17.75 121.014 17.75C121.24 17.75 121.413 17.828 121.534 17.984C121.656 18.14 121.881 18.5127 122.21 19.102L127.878 29.736L132.818 18.4C132.922 18.1573 133.026 17.9927 133.13 17.906C133.252 17.802 133.408 17.75 133.598 17.75C133.754 17.75 133.928 17.7587 134.118 17.776C134.326 17.7933 134.56 17.802 134.82 17.802L136.354 17.776C136.597 17.7587 136.944 17.75 137.394 17.75C137.446 17.75 137.472 17.802 137.472 17.906C137.472 18.01 137.446 18.062 137.394 18.062C136.58 18.062 135.99 18.2267 135.626 18.556C135.262 18.8853 135.098 19.3967 135.132 20.09L135.756 31.894C135.791 32.4313 135.852 32.8213 135.938 33.064C136.042 33.3067 136.216 33.4713 136.458 33.558C136.718 33.6447 137.117 33.688 137.654 33.688Z" fill="white"/>
<path d="M145.751 31.894C145.751 32.4313 145.795 32.8213 145.881 33.064C145.968 33.3067 146.133 33.4713 146.375 33.558C146.635 33.6447 147.043 33.688 147.597 33.688C147.649 33.688 147.675 33.74 147.675 33.844C147.675 33.948 147.649 34 147.597 34C147.025 34 146.575 33.9913 146.245 33.974L144.269 33.948L142.345 33.974C141.999 33.9913 141.531 34 140.941 34C140.907 34 140.889 33.948 140.889 33.844C140.889 33.74 140.907 33.688 140.941 33.688C141.496 33.688 141.903 33.6447 142.163 33.558C142.423 33.4713 142.597 33.3067 142.683 33.064C142.787 32.804 142.839 32.414 142.839 31.894V19.856C142.839 19.336 142.787 18.9547 142.683 18.712C142.597 18.4693 142.423 18.3047 142.163 18.218C141.903 18.114 141.496 18.062 140.941 18.062C140.907 18.062 140.889 18.01 140.889 17.906C140.889 17.802 140.907 17.75 140.941 17.75L142.345 17.776C143.143 17.8107 143.784 17.828 144.269 17.828C144.807 17.828 145.474 17.8107 146.271 17.776L147.597 17.75C147.649 17.75 147.675 17.802 147.675 17.906C147.675 18.01 147.649 18.062 147.597 18.062C147.06 18.062 146.661 18.114 146.401 18.218C146.141 18.322 145.968 18.504 145.881 18.764C145.795 19.0067 145.751 19.388 145.751 19.908V31.894Z" fill="white"/>
</svg>
